<mxfile host="app.diagrams.net" agent="Mozilla/5.0 (Macintosh; Intel Mac OS X 10_15_7) AppleWebKit/537.36 (KHTML, like Gecko) Chrome/132.0.0.0 Safari/537.36" version="26.0.8">
  <diagram id="C5RBs43oDa-KdzZeNtuy" name="Page-1">
    <mxGraphModel dx="1307" dy="826" grid="1" gridSize="10" guides="1" tooltips="1" connect="1" arrows="1" fold="1" page="1" pageScale="1" pageWidth="827" pageHeight="1169" math="0" shadow="0">
      <root>
        <mxCell id="WIyWlLk6GJQsqaUBKTNV-0" />
        <mxCell id="WIyWlLk6GJQsqaUBKTNV-1" parent="WIyWlLk6GJQsqaUBKTNV-0" />
        <mxCell id="vrRkLWO5K9Gln_ZjerVd-9" value="" style="edgeStyle=orthogonalEdgeStyle;rounded=0;orthogonalLoop=1;jettySize=auto;html=1;entryX=0;entryY=0.5;entryDx=0;entryDy=0;" edge="1" parent="WIyWlLk6GJQsqaUBKTNV-1" source="vrRkLWO5K9Gln_ZjerVd-0" target="vrRkLWO5K9Gln_ZjerVd-6">
          <mxGeometry relative="1" as="geometry" />
        </mxCell>
        <mxCell id="vrRkLWO5K9Gln_ZjerVd-25" style="edgeStyle=orthogonalEdgeStyle;rounded=0;orthogonalLoop=1;jettySize=auto;html=1;" edge="1" parent="WIyWlLk6GJQsqaUBKTNV-1" source="vrRkLWO5K9Gln_ZjerVd-0" target="vrRkLWO5K9Gln_ZjerVd-10">
          <mxGeometry relative="1" as="geometry" />
        </mxCell>
        <mxCell id="vrRkLWO5K9Gln_ZjerVd-32" style="edgeStyle=orthogonalEdgeStyle;rounded=0;orthogonalLoop=1;jettySize=auto;html=1;entryX=0;entryY=0.5;entryDx=0;entryDy=0;" edge="1" parent="WIyWlLk6GJQsqaUBKTNV-1" source="vrRkLWO5K9Gln_ZjerVd-0" target="vrRkLWO5K9Gln_ZjerVd-10">
          <mxGeometry relative="1" as="geometry" />
        </mxCell>
        <mxCell id="vrRkLWO5K9Gln_ZjerVd-0" value="GET (MAP)" style="rounded=0;whiteSpace=wrap;html=1;" vertex="1" parent="WIyWlLk6GJQsqaUBKTNV-1">
          <mxGeometry x="230" y="90" width="120" height="60" as="geometry" />
        </mxCell>
        <mxCell id="vrRkLWO5K9Gln_ZjerVd-15" value="" style="edgeStyle=orthogonalEdgeStyle;rounded=0;orthogonalLoop=1;jettySize=auto;html=1;" edge="1" parent="WIyWlLk6GJQsqaUBKTNV-1" source="vrRkLWO5K9Gln_ZjerVd-1" target="vrRkLWO5K9Gln_ZjerVd-14">
          <mxGeometry relative="1" as="geometry" />
        </mxCell>
        <mxCell id="vrRkLWO5K9Gln_ZjerVd-1" value="&#39;/&#39;" style="rounded=0;whiteSpace=wrap;html=1;" vertex="1" parent="WIyWlLk6GJQsqaUBKTNV-1">
          <mxGeometry x="430" y="90" width="120" height="60" as="geometry" />
        </mxCell>
        <mxCell id="vrRkLWO5K9Gln_ZjerVd-3" value="" style="edgeStyle=orthogonalEdgeStyle;rounded=0;orthogonalLoop=1;jettySize=auto;html=1;" edge="1" source="vrRkLWO5K9Gln_ZjerVd-4" target="vrRkLWO5K9Gln_ZjerVd-5" parent="WIyWlLk6GJQsqaUBKTNV-1">
          <mxGeometry relative="1" as="geometry" />
        </mxCell>
        <mxCell id="vrRkLWO5K9Gln_ZjerVd-4" value="POST (MAP)" style="rounded=0;whiteSpace=wrap;html=1;" vertex="1" parent="WIyWlLk6GJQsqaUBKTNV-1">
          <mxGeometry x="230" y="470" width="120" height="60" as="geometry" />
        </mxCell>
        <mxCell id="vrRkLWO5K9Gln_ZjerVd-5" value="&#39;/&#39;" style="rounded=0;whiteSpace=wrap;html=1;" vertex="1" parent="WIyWlLk6GJQsqaUBKTNV-1">
          <mxGeometry x="430" y="470" width="120" height="60" as="geometry" />
        </mxCell>
        <mxCell id="vrRkLWO5K9Gln_ZjerVd-27" style="edgeStyle=orthogonalEdgeStyle;rounded=0;orthogonalLoop=1;jettySize=auto;html=1;entryX=0;entryY=0.5;entryDx=0;entryDy=0;" edge="1" parent="WIyWlLk6GJQsqaUBKTNV-1" source="vrRkLWO5K9Gln_ZjerVd-6" target="vrRkLWO5K9Gln_ZjerVd-24">
          <mxGeometry relative="1" as="geometry" />
        </mxCell>
        <mxCell id="vrRkLWO5K9Gln_ZjerVd-6" value="&#39;/getposts&#39;" style="rounded=0;whiteSpace=wrap;html=1;" vertex="1" parent="WIyWlLk6GJQsqaUBKTNV-1">
          <mxGeometry x="430" y="250" width="120" height="60" as="geometry" />
        </mxCell>
        <mxCell id="vrRkLWO5K9Gln_ZjerVd-26" style="edgeStyle=orthogonalEdgeStyle;rounded=0;orthogonalLoop=1;jettySize=auto;html=1;entryX=0;entryY=0.5;entryDx=0;entryDy=0;" edge="1" parent="WIyWlLk6GJQsqaUBKTNV-1" source="vrRkLWO5K9Gln_ZjerVd-10" target="vrRkLWO5K9Gln_ZjerVd-23">
          <mxGeometry relative="1" as="geometry" />
        </mxCell>
        <mxCell id="vrRkLWO5K9Gln_ZjerVd-10" value="&#39;/getstatus&#39;" style="rounded=0;whiteSpace=wrap;html=1;" vertex="1" parent="WIyWlLk6GJQsqaUBKTNV-1">
          <mxGeometry x="430" y="170" width="120" height="60" as="geometry" />
        </mxCell>
        <mxCell id="vrRkLWO5K9Gln_ZjerVd-12" style="edgeStyle=orthogonalEdgeStyle;rounded=0;orthogonalLoop=1;jettySize=auto;html=1;entryX=0;entryY=0.5;entryDx=0;entryDy=0;" edge="1" parent="WIyWlLk6GJQsqaUBKTNV-1" source="vrRkLWO5K9Gln_ZjerVd-11" target="vrRkLWO5K9Gln_ZjerVd-0">
          <mxGeometry relative="1" as="geometry" />
        </mxCell>
        <mxCell id="vrRkLWO5K9Gln_ZjerVd-13" style="edgeStyle=orthogonalEdgeStyle;rounded=0;orthogonalLoop=1;jettySize=auto;html=1;entryX=0;entryY=0.5;entryDx=0;entryDy=0;" edge="1" parent="WIyWlLk6GJQsqaUBKTNV-1" source="vrRkLWO5K9Gln_ZjerVd-11" target="vrRkLWO5K9Gln_ZjerVd-4">
          <mxGeometry relative="1" as="geometry" />
        </mxCell>
        <mxCell id="vrRkLWO5K9Gln_ZjerVd-11" value="ROUTE HANDLERS (MAP)" style="rounded=0;whiteSpace=wrap;html=1;" vertex="1" parent="WIyWlLk6GJQsqaUBKTNV-1">
          <mxGeometry x="20" y="90" width="120" height="60" as="geometry" />
        </mxCell>
        <mxCell id="vrRkLWO5K9Gln_ZjerVd-14" value="[Middlewares, Method]" style="rounded=0;whiteSpace=wrap;html=1;" vertex="1" parent="WIyWlLk6GJQsqaUBKTNV-1">
          <mxGeometry x="580" y="90" width="120" height="60" as="geometry" />
        </mxCell>
        <mxCell id="vrRkLWO5K9Gln_ZjerVd-16" value="KEY" style="text;html=1;align=center;verticalAlign=middle;resizable=0;points=[];autosize=1;strokeColor=none;fillColor=none;" vertex="1" parent="WIyWlLk6GJQsqaUBKTNV-1">
          <mxGeometry x="230" y="40" width="50" height="30" as="geometry" />
        </mxCell>
        <mxCell id="vrRkLWO5K9Gln_ZjerVd-17" value="KEY" style="text;html=1;align=center;verticalAlign=middle;resizable=0;points=[];autosize=1;strokeColor=none;fillColor=none;" vertex="1" parent="WIyWlLk6GJQsqaUBKTNV-1">
          <mxGeometry x="230" y="440" width="50" height="30" as="geometry" />
        </mxCell>
        <mxCell id="vrRkLWO5K9Gln_ZjerVd-18" value="VALUE" style="text;html=1;align=center;verticalAlign=middle;resizable=0;points=[];autosize=1;strokeColor=none;fillColor=none;" vertex="1" parent="WIyWlLk6GJQsqaUBKTNV-1">
          <mxGeometry x="430" y="30" width="60" height="30" as="geometry" />
        </mxCell>
        <mxCell id="vrRkLWO5K9Gln_ZjerVd-19" value="VALUE" style="text;html=1;align=center;verticalAlign=middle;resizable=0;points=[];autosize=1;strokeColor=none;fillColor=none;" vertex="1" parent="WIyWlLk6GJQsqaUBKTNV-1">
          <mxGeometry x="430" y="410" width="60" height="30" as="geometry" />
        </mxCell>
        <mxCell id="vrRkLWO5K9Gln_ZjerVd-20" value="KEY" style="text;html=1;align=center;verticalAlign=middle;resizable=0;points=[];autosize=1;strokeColor=none;fillColor=none;" vertex="1" parent="WIyWlLk6GJQsqaUBKTNV-1">
          <mxGeometry x="435" y="440" width="50" height="30" as="geometry" />
        </mxCell>
        <mxCell id="vrRkLWO5K9Gln_ZjerVd-21" value="KEY" style="text;html=1;align=center;verticalAlign=middle;resizable=0;points=[];autosize=1;strokeColor=none;fillColor=none;" vertex="1" parent="WIyWlLk6GJQsqaUBKTNV-1">
          <mxGeometry x="435" y="60" width="50" height="30" as="geometry" />
        </mxCell>
        <mxCell id="vrRkLWO5K9Gln_ZjerVd-22" value="VALUE" style="text;html=1;align=center;verticalAlign=middle;resizable=0;points=[];autosize=1;strokeColor=none;fillColor=none;" vertex="1" parent="WIyWlLk6GJQsqaUBKTNV-1">
          <mxGeometry x="580" y="60" width="60" height="30" as="geometry" />
        </mxCell>
        <mxCell id="vrRkLWO5K9Gln_ZjerVd-23" value="[Middlewares, Method]" style="rounded=0;whiteSpace=wrap;html=1;" vertex="1" parent="WIyWlLk6GJQsqaUBKTNV-1">
          <mxGeometry x="580" y="170" width="120" height="60" as="geometry" />
        </mxCell>
        <mxCell id="vrRkLWO5K9Gln_ZjerVd-24" value="[Middlewares, Method]" style="rounded=0;whiteSpace=wrap;html=1;" vertex="1" parent="WIyWlLk6GJQsqaUBKTNV-1">
          <mxGeometry x="580" y="250" width="120" height="60" as="geometry" />
        </mxCell>
        <mxCell id="vrRkLWO5K9Gln_ZjerVd-28" value="[Middlewares, Method]" style="rounded=0;whiteSpace=wrap;html=1;" vertex="1" parent="WIyWlLk6GJQsqaUBKTNV-1">
          <mxGeometry x="570" y="470" width="120" height="60" as="geometry" />
        </mxCell>
        <mxCell id="vrRkLWO5K9Gln_ZjerVd-29" value="VALUE" style="text;html=1;align=center;verticalAlign=middle;resizable=0;points=[];autosize=1;strokeColor=none;fillColor=none;" vertex="1" parent="WIyWlLk6GJQsqaUBKTNV-1">
          <mxGeometry x="570" y="440" width="60" height="30" as="geometry" />
        </mxCell>
        <mxCell id="vrRkLWO5K9Gln_ZjerVd-66" style="edgeStyle=orthogonalEdgeStyle;rounded=0;orthogonalLoop=1;jettySize=auto;html=1;entryX=0;entryY=0.5;entryDx=0;entryDy=0;" edge="1" parent="WIyWlLk6GJQsqaUBKTNV-1" source="vrRkLWO5K9Gln_ZjerVd-36" target="vrRkLWO5K9Gln_ZjerVd-59">
          <mxGeometry relative="1" as="geometry" />
        </mxCell>
        <mxCell id="vrRkLWO5K9Gln_ZjerVd-36" value="GET" style="rounded=0;whiteSpace=wrap;html=1;" vertex="1" parent="WIyWlLk6GJQsqaUBKTNV-1">
          <mxGeometry x="410" y="670" width="120" height="60" as="geometry" />
        </mxCell>
        <mxCell id="vrRkLWO5K9Gln_ZjerVd-63" style="edgeStyle=orthogonalEdgeStyle;rounded=0;orthogonalLoop=1;jettySize=auto;html=1;entryX=0;entryY=0.5;entryDx=0;entryDy=0;" edge="1" parent="WIyWlLk6GJQsqaUBKTNV-1" source="vrRkLWO5K9Gln_ZjerVd-38" target="vrRkLWO5K9Gln_ZjerVd-36">
          <mxGeometry relative="1" as="geometry" />
        </mxCell>
        <mxCell id="vrRkLWO5K9Gln_ZjerVd-64" style="edgeStyle=orthogonalEdgeStyle;rounded=0;orthogonalLoop=1;jettySize=auto;html=1;entryX=0;entryY=0.5;entryDx=0;entryDy=0;" edge="1" parent="WIyWlLk6GJQsqaUBKTNV-1" source="vrRkLWO5K9Gln_ZjerVd-38" target="vrRkLWO5K9Gln_ZjerVd-40">
          <mxGeometry relative="1" as="geometry" />
        </mxCell>
        <mxCell id="vrRkLWO5K9Gln_ZjerVd-65" style="edgeStyle=orthogonalEdgeStyle;rounded=0;orthogonalLoop=1;jettySize=auto;html=1;entryX=0;entryY=0.5;entryDx=0;entryDy=0;" edge="1" parent="WIyWlLk6GJQsqaUBKTNV-1" source="vrRkLWO5K9Gln_ZjerVd-38" target="vrRkLWO5K9Gln_ZjerVd-61">
          <mxGeometry relative="1" as="geometry" />
        </mxCell>
        <mxCell id="vrRkLWO5K9Gln_ZjerVd-38" value="&#39;/&#39;" style="rounded=0;whiteSpace=wrap;html=1;" vertex="1" parent="WIyWlLk6GJQsqaUBKTNV-1">
          <mxGeometry x="240" y="670" width="120" height="60" as="geometry" />
        </mxCell>
        <mxCell id="vrRkLWO5K9Gln_ZjerVd-71" style="edgeStyle=orthogonalEdgeStyle;rounded=0;orthogonalLoop=1;jettySize=auto;html=1;entryX=0;entryY=0.5;entryDx=0;entryDy=0;" edge="1" parent="WIyWlLk6GJQsqaUBKTNV-1" source="vrRkLWO5K9Gln_ZjerVd-40" target="vrRkLWO5K9Gln_ZjerVd-67">
          <mxGeometry relative="1" as="geometry" />
        </mxCell>
        <mxCell id="vrRkLWO5K9Gln_ZjerVd-40" value="POST" style="rounded=0;whiteSpace=wrap;html=1;" vertex="1" parent="WIyWlLk6GJQsqaUBKTNV-1">
          <mxGeometry x="410" y="750" width="120" height="60" as="geometry" />
        </mxCell>
        <mxCell id="vrRkLWO5K9Gln_ZjerVd-86" style="edgeStyle=orthogonalEdgeStyle;rounded=0;orthogonalLoop=1;jettySize=auto;html=1;entryX=0;entryY=0.5;entryDx=0;entryDy=0;" edge="1" parent="WIyWlLk6GJQsqaUBKTNV-1" source="vrRkLWO5K9Gln_ZjerVd-43" target="vrRkLWO5K9Gln_ZjerVd-83">
          <mxGeometry relative="1" as="geometry" />
        </mxCell>
        <mxCell id="vrRkLWO5K9Gln_ZjerVd-43" value="&#39;/posts&#39;" style="rounded=0;whiteSpace=wrap;html=1;" vertex="1" parent="WIyWlLk6GJQsqaUBKTNV-1">
          <mxGeometry x="240" y="1100" width="120" height="60" as="geometry" />
        </mxCell>
        <mxCell id="vrRkLWO5K9Gln_ZjerVd-85" style="edgeStyle=orthogonalEdgeStyle;rounded=0;orthogonalLoop=1;jettySize=auto;html=1;entryX=0;entryY=0.5;entryDx=0;entryDy=0;" edge="1" parent="WIyWlLk6GJQsqaUBKTNV-1" source="vrRkLWO5K9Gln_ZjerVd-45" target="vrRkLWO5K9Gln_ZjerVd-74">
          <mxGeometry relative="1" as="geometry" />
        </mxCell>
        <mxCell id="vrRkLWO5K9Gln_ZjerVd-45" value="&#39;/users&#39;" style="rounded=0;whiteSpace=wrap;html=1;" vertex="1" parent="WIyWlLk6GJQsqaUBKTNV-1">
          <mxGeometry x="240" y="980" width="120" height="60" as="geometry" />
        </mxCell>
        <mxCell id="vrRkLWO5K9Gln_ZjerVd-62" style="edgeStyle=orthogonalEdgeStyle;rounded=0;orthogonalLoop=1;jettySize=auto;html=1;" edge="1" parent="WIyWlLk6GJQsqaUBKTNV-1" source="vrRkLWO5K9Gln_ZjerVd-48" target="vrRkLWO5K9Gln_ZjerVd-38">
          <mxGeometry relative="1" as="geometry" />
        </mxCell>
        <mxCell id="vrRkLWO5K9Gln_ZjerVd-72" style="edgeStyle=orthogonalEdgeStyle;rounded=0;orthogonalLoop=1;jettySize=auto;html=1;entryX=0;entryY=0.5;entryDx=0;entryDy=0;" edge="1" parent="WIyWlLk6GJQsqaUBKTNV-1" source="vrRkLWO5K9Gln_ZjerVd-48" target="vrRkLWO5K9Gln_ZjerVd-45">
          <mxGeometry relative="1" as="geometry" />
        </mxCell>
        <mxCell id="vrRkLWO5K9Gln_ZjerVd-91" style="edgeStyle=orthogonalEdgeStyle;rounded=0;orthogonalLoop=1;jettySize=auto;html=1;entryX=0;entryY=0.5;entryDx=0;entryDy=0;" edge="1" parent="WIyWlLk6GJQsqaUBKTNV-1" source="vrRkLWO5K9Gln_ZjerVd-48" target="vrRkLWO5K9Gln_ZjerVd-43">
          <mxGeometry relative="1" as="geometry" />
        </mxCell>
        <mxCell id="vrRkLWO5K9Gln_ZjerVd-48" value="ROUTE HANDLERS (MAP)" style="rounded=0;whiteSpace=wrap;html=1;" vertex="1" parent="WIyWlLk6GJQsqaUBKTNV-1">
          <mxGeometry x="74" y="670" width="120" height="60" as="geometry" />
        </mxCell>
        <mxCell id="vrRkLWO5K9Gln_ZjerVd-59" value="[Middlewares, Method]" style="rounded=0;whiteSpace=wrap;html=1;" vertex="1" parent="WIyWlLk6GJQsqaUBKTNV-1">
          <mxGeometry x="585" y="670" width="120" height="60" as="geometry" />
        </mxCell>
        <mxCell id="vrRkLWO5K9Gln_ZjerVd-70" style="edgeStyle=orthogonalEdgeStyle;rounded=0;orthogonalLoop=1;jettySize=auto;html=1;entryX=0;entryY=0.5;entryDx=0;entryDy=0;" edge="1" parent="WIyWlLk6GJQsqaUBKTNV-1" source="vrRkLWO5K9Gln_ZjerVd-61" target="vrRkLWO5K9Gln_ZjerVd-69">
          <mxGeometry relative="1" as="geometry" />
        </mxCell>
        <mxCell id="vrRkLWO5K9Gln_ZjerVd-61" value="DELETE" style="rounded=0;whiteSpace=wrap;html=1;" vertex="1" parent="WIyWlLk6GJQsqaUBKTNV-1">
          <mxGeometry x="410" y="830" width="120" height="60" as="geometry" />
        </mxCell>
        <mxCell id="vrRkLWO5K9Gln_ZjerVd-67" value="[Middlewares, Method]" style="rounded=0;whiteSpace=wrap;html=1;" vertex="1" parent="WIyWlLk6GJQsqaUBKTNV-1">
          <mxGeometry x="590" y="750" width="120" height="60" as="geometry" />
        </mxCell>
        <mxCell id="vrRkLWO5K9Gln_ZjerVd-69" value="[Middlewares, Method]" style="rounded=0;whiteSpace=wrap;html=1;" vertex="1" parent="WIyWlLk6GJQsqaUBKTNV-1">
          <mxGeometry x="590" y="830" width="120" height="60" as="geometry" />
        </mxCell>
        <mxCell id="vrRkLWO5K9Gln_ZjerVd-73" style="edgeStyle=orthogonalEdgeStyle;rounded=0;orthogonalLoop=1;jettySize=auto;html=1;entryX=0;entryY=0.5;entryDx=0;entryDy=0;" edge="1" source="vrRkLWO5K9Gln_ZjerVd-74" target="vrRkLWO5K9Gln_ZjerVd-77" parent="WIyWlLk6GJQsqaUBKTNV-1">
          <mxGeometry relative="1" as="geometry" />
        </mxCell>
        <mxCell id="vrRkLWO5K9Gln_ZjerVd-74" value="GET" style="rounded=0;whiteSpace=wrap;html=1;" vertex="1" parent="WIyWlLk6GJQsqaUBKTNV-1">
          <mxGeometry x="410" y="980" width="120" height="60" as="geometry" />
        </mxCell>
        <mxCell id="vrRkLWO5K9Gln_ZjerVd-77" value="[Middlewares, Method]" style="rounded=0;whiteSpace=wrap;html=1;" vertex="1" parent="WIyWlLk6GJQsqaUBKTNV-1">
          <mxGeometry x="585" y="980" width="120" height="60" as="geometry" />
        </mxCell>
        <mxCell id="vrRkLWO5K9Gln_ZjerVd-82" style="edgeStyle=orthogonalEdgeStyle;rounded=0;orthogonalLoop=1;jettySize=auto;html=1;entryX=0;entryY=0.5;entryDx=0;entryDy=0;" edge="1" source="vrRkLWO5K9Gln_ZjerVd-83" target="vrRkLWO5K9Gln_ZjerVd-84" parent="WIyWlLk6GJQsqaUBKTNV-1">
          <mxGeometry relative="1" as="geometry" />
        </mxCell>
        <mxCell id="vrRkLWO5K9Gln_ZjerVd-83" value="GET" style="rounded=0;whiteSpace=wrap;html=1;" vertex="1" parent="WIyWlLk6GJQsqaUBKTNV-1">
          <mxGeometry x="410" y="1100" width="120" height="60" as="geometry" />
        </mxCell>
        <mxCell id="vrRkLWO5K9Gln_ZjerVd-84" value="[Middlewares, Method]" style="rounded=0;whiteSpace=wrap;html=1;" vertex="1" parent="WIyWlLk6GJQsqaUBKTNV-1">
          <mxGeometry x="585" y="1100" width="120" height="60" as="geometry" />
        </mxCell>
        <mxCell id="vrRkLWO5K9Gln_ZjerVd-87" value="MAP" style="text;html=1;align=center;verticalAlign=middle;resizable=0;points=[];autosize=1;strokeColor=none;fillColor=none;" vertex="1" parent="WIyWlLk6GJQsqaUBKTNV-1">
          <mxGeometry x="74" y="640" width="50" height="30" as="geometry" />
        </mxCell>
        <mxCell id="vrRkLWO5K9Gln_ZjerVd-88" value="MAP" style="text;html=1;align=center;verticalAlign=middle;resizable=0;points=[];autosize=1;strokeColor=none;fillColor=none;" vertex="1" parent="WIyWlLk6GJQsqaUBKTNV-1">
          <mxGeometry x="240" y="640" width="50" height="30" as="geometry" />
        </mxCell>
        <mxCell id="vrRkLWO5K9Gln_ZjerVd-89" value="MAP" style="text;html=1;align=center;verticalAlign=middle;resizable=0;points=[];autosize=1;strokeColor=none;fillColor=none;" vertex="1" parent="WIyWlLk6GJQsqaUBKTNV-1">
          <mxGeometry x="240" y="950" width="50" height="30" as="geometry" />
        </mxCell>
        <mxCell id="vrRkLWO5K9Gln_ZjerVd-90" value="MAP" style="text;html=1;align=center;verticalAlign=middle;resizable=0;points=[];autosize=1;strokeColor=none;fillColor=none;" vertex="1" parent="WIyWlLk6GJQsqaUBKTNV-1">
          <mxGeometry x="240" y="1070" width="50" height="30" as="geometry" />
        </mxCell>
      </root>
    </mxGraphModel>
  </diagram>
</mxfile>
